<svg xmlns="http://www.w3.org/2000/svg" version="1.1" xmlns:xlink="http://www.w3.org/1999/xlink" xmlns:svgjs="http://svgjs.dev/svgjs" width="1440" height="560" preserveAspectRatio="none" viewBox="0 0 1440 560"><g mask="url(&quot;#SvgjsMask1102&quot;)" fill="none"><rect width="1440" height="560" x="0" y="0" fill="url(&quot;#SvgjsLinearGradient1103&quot;)"></rect><path d="M1440 0L930.03 0L1440 166.57z" fill="rgba(255, 255, 255, .1)"></path><path d="M930.03 0L1440 166.57L1440 378.40999999999997L652.93 0z" fill="rgba(255, 255, 255, .075)"></path><path d="M652.93 0L1440 378.40999999999997L1440 430.59999999999997L386.2099999999999 0z" fill="rgba(255, 255, 255, .05)"></path><path d="M386.21000000000004 0L1440 430.59999999999997L1440 460.95L194.81000000000003 0z" fill="rgba(255, 255, 255, .025)"></path><path d="M0 560L346.36 560L0 374.22z" fill="rgba(0, 0, 0, .1)"></path><path d="M0 374.22L346.36 560L714.59 560L0 337.24z" fill="rgba(0, 0, 0, .075)"></path><path d="M0 337.24L714.59 560L1115.53 560L0 309.86z" fill="rgba(0, 0, 0, .05)"></path><path d="M0 309.86L1115.53 560L1211.92 560L0 167z" fill="rgba(0, 0, 0, .025)"></path></g><defs><mask id="SvgjsMask1102"><rect width="1440" height="560" fill="#ffffff"></rect></mask><linearGradient x1="15.28%" y1="-39.29%" x2="84.72%" y2="139.29%" gradientUnits="userSpaceOnUse" id="SvgjsLinearGradient1103"><stop stop-color="rgba(155, 167, 249, 1)" offset="0"></stop><stop stop-color="rgba(252, 140, 214, 0.17)" offset="1"></stop></linearGradient></defs></svg>